<!-- icon666.com - MILLIONS vector ICONS FREE --><svg version="1.1" id="Layer_1" xmlns="http://www.w3.org/2000/svg" xmlns:xlink="http://www.w3.org/1999/xlink" x="0px" y="0px" viewBox="0 0 512 512" style="enable-background:new 0 0 512 512;" xml:space="preserve"><path style="fill:#242D3C;" d="M256,302.065c-101.532,0-195.924-50.452-252.498-134.966L0,161.866l3.5-5.235 C60.076,72.12,154.468,21.668,256,21.668c101.517,0,195.904,50.45,252.495,134.961l3.505,5.238l-3.505,5.233 C451.904,251.612,357.512,302.065,256,302.065z M22.733,161.866C76.152,237.988,162.877,283.244,256,283.244 c93.105,0,179.83-45.256,233.265-121.377C435.83,85.742,349.11,40.489,256,40.489C162.875,40.489,76.155,85.742,22.733,161.866z"></path><path style="fill:#43D3E8;" d="M340.165,161.871c0,46.484-37.686,84.17-84.16,84.17c-46.482,0-84.173-37.686-84.173-84.165 c0-46.49,37.691-84.175,84.173-84.175C302.479,77.699,340.165,115.384,340.165,161.871z"></path><path style="fill:#FFFFFF;" d="M206.876,161.871h-18.821c0-18.122,7.055-35.187,19.871-48.049l13.335,13.284 C211.983,136.415,206.876,148.759,206.876,161.871z"></path><g><path style="fill:#242D3C;" d="M256,194.772c-18.14,0-32.901-14.761-32.901-32.901c0-18.143,14.761-32.904,32.901-32.904 c18.14,0,32.901,14.761,32.901,32.904C288.901,180.012,274.14,194.772,256,194.772z M256,147.789 c-7.764,0-14.08,6.318-14.08,14.083c0,7.764,6.316,14.08,14.08,14.08c7.762,0,14.077-6.316,14.077-14.08 C270.077,154.107,263.762,147.789,256,147.789z"></path><path style="fill:#242D3C;" d="M256.005,302.072c-77.307,0-140.203-62.894-140.203-140.198 c0-77.309,62.897-140.206,140.203-140.206c77.299,0,140.188,62.892,140.188,140.204 C396.196,239.178,333.304,302.072,256.005,302.072z M256.005,40.489c-66.934,0-121.382,54.454-121.382,121.385 c0,66.926,54.449,121.375,121.382,121.375c66.924,0,121.37-54.454,121.37-121.38C377.375,94.938,322.931,40.489,256.005,40.489z"></path><rect x="246.605" y="292.659" style="fill:#242D3C;" width="18.821" height="44.124"></rect><path style="fill:#242D3C;" d="M256.005,490.332c-9.505,0-18.44-3.704-25.16-10.432c-6.72-6.72-10.417-15.652-10.406-25.147 v-127.38h71.135v127.391c-0.01,9.503-3.712,18.427-10.424,25.139C274.417,486.63,265.487,490.332,256.005,490.332z M239.263,346.194v108.567c-0.003,4.47,1.736,8.668,4.9,11.83c3.169,3.174,7.373,4.918,11.843,4.918 c4.46,0,8.663-1.746,11.84-4.923c3.156-3.156,4.902-7.363,4.908-11.835V346.194H239.263z"></path></g></svg>