<!-- icon666.com - MILLIONS vector ICONS FREE --><svg viewBox="-48 0 496 496" xmlns="http://www.w3.org/2000/svg"><path d="m240.003906 280 71.054688 8.359375c37.792968 4.449219 67.214844 34.886719 70.375 72.808594l10.570312 126.832031h-384l10.566406-126.832031c3.160157-37.921875 32.59375-68.359375 70.375-72.808594l71.058594-8.359375" fill="#5789d6"></path><path d="m271.058594 288.359375-71.054688-8.359375h-40l-71.058594 8.359375c-37.789062 4.449219-67.214843 34.886719-70.375 72.808594l-10.566406 126.832031h344l-10.570312-126.832031c-3.160156-37.921875-32.589844-68.359375-70.375-72.808594zm0 0" fill="#699ce6"></path><path d="m152.003906 376 50.421875-60.503906-40.269531-35.496094h-2.152344l-31.089844 3.65625zm0 0" fill="#efedee"></path><path d="m271.089844 283.65625-31.085938-3.65625h-7.9375l-34.878906 35.015625 50.816406 60.984375zm0 0" fill="#d9d7d8"></path><path d="m168.003906 256-8 40 40 40 40-40-8-40" fill="#dcb29c"></path><path d="m216.003906 288-6.402344-32h-41.597656l-8 40 24 24zm0 0" fill="#f3c6b0"></path><path d="m200.003906 264c-44.183594 0-80-35.816406-80-80v-64c0-44.183594 35.816406-80 80-80s80 35.816406 80 80v64c0 44.183594-35.816406 80-80 80zm0 0" fill="#dcb29c"></path><path d="m188.003906 41c-38.472656 5.800781-68 38.902344-68 79v64c0 40.097656 29.527344 73.199219 68 79 38.472656-5.800781 68-38.902344 68-79v-64c0-40.097656-29.527344-73.199219-68-79zm0 0" fill="#f3c6b0"></path><path d="m200.003906 40c-44.183594 0-80 35.816406-80 80h48c11.65625 0 22.582032-3.121094 32-8.558594 9.414063 5.4375 20.34375 8.558594 32 8.558594h48c0-44.183594-35.816406-80-80-80zm0 0" fill="#7e4e4d"></path><path d="m232.003906 56v-9.296875c-9.808594-4.289063-20.617187-6.703125-32-6.703125-44.183594 0-80 35.816406-80 80h48c35.34375 0 64-28.65625 64-64zm0 0" fill="#8d5655"></path><g fill="#656665"><path d="m208.003906 232h-16c-8.839844 0-16-7.160156-16-16s7.160156-16 16-16h16c8.839844 0 16 7.160156 16 16s-7.160156 16-16 16zm0 0"></path><path d="m120.003906 184h-32c-8.839844 0-16-7.160156-16-16v-32c0-8.839844 7.160156-16 16-16h32"></path><path d="m280.003906 184h32c8.839844 0 16-7.160156 16-16v-32c0-8.839844-7.160156-16-16-16h-32"></path></g><path d="m200.003906 272c-48.519531 0-88-39.480469-88-88v-64c0-48.519531 39.480469-88 88-88 48.519532 0 88 39.480469 88 88v64c0 48.519531-39.480468 88-88 88zm0-224c-39.695312 0-72 32.304688-72 72v64c0 39.695312 32.304688 72 72 72 39.695313 0 72-32.304688 72-72v-64c0-39.695312-32.304687-72-72-72zm0 0"></path><path d="m280.003906 128h-48c-12.65625 0-25.105468-3.335938-36-9.640625l8.007813-13.847656c8.464843 4.894531 18.152343 7.488281 27.992187 7.488281h48zm0 0"></path><path d="m120.003906 192h-32c-13.234375 0-24-10.769531-24-24v-32c0-13.230469 10.765625-24 24-24h32v16h-32c-4.410156 0-8 3.59375-8 8v32c0 4.40625 3.589844 8 8 8h32zm0 0"></path><path d="m312.003906 192h-32v-16h32c4.40625 0 8-3.59375 8-8v-32c0-4.40625-3.59375-8-8-8h-32v-16h32c13.230469 0 24 10.769531 24 24v32c0 13.230469-10.769531 24-24 24zm0 0"></path><path d="m320.003906 120h-16c0-57.34375-46.65625-104-104-104s-104 46.65625-104 104h-16c0-66.167969 53.832032-120 120-120 66.167969 0 120 53.832031 120 120zm0 0"></path><path d="m200.003906 344c-2.046875 0-4.097656-.785156-5.65625-2.34375l-40-40c-1.886718-1.886719-2.710937-4.601562-2.183594-7.222656l8-40 15.6875 3.140625-7.160156 35.800781 31.3125 31.3125 31.320313-31.320312-7.160157-35.800782 15.6875-3.140625 8 40c.527344 2.621094-.296874 5.335938-2.183593 7.222657l-40 40c-1.570313 1.566406-3.617188 2.351562-5.664063 2.351562zm0 0"></path><path d="m392.003906 496h-384c-2.242187 0-4.367187-.9375-5.890625-2.585938-1.511719-1.644531-2.269531-3.847656-2.0859372-6.078124l10.5664062-126.832032c3.464844-41.535156 36.015625-75.214844 77.417969-80.089844l71.054687-8.359374 1.863282 15.890624-71.054688 8.359376c-33.863281 3.984374-60.503906 31.542968-63.335938 65.527343l-9.839843 118.167969h366.609375l-9.847656-118.167969c-2.832032-33.984375-29.472657-61.542969-63.335938-65.527343l-71.058594-8.359376 1.863282-15.890624 71.058593 8.359374c41.390625 4.875 73.949219 38.554688 77.414063 80.089844l10.570312 126.832032c.183594 2.230468-.570312 4.433593-2.089844 6.078124-1.511718 1.648438-3.640624 2.585938-5.878906 2.585938zm0 0"></path><path d="m152.003906 384c-.59375 0-1.191406-.0625-1.785156-.199219-2.9375-.671875-5.246094-2.9375-5.976562-5.855469l-24-96 15.519531-3.882812 20.175781 80.722656 29.914062-35.898437 12.289063 10.242187-40 48c-1.53125 1.839844-3.792969 2.871094-6.136719 2.871094zm0 0"></path><path d="m248.003906 384c-2.34375 0-4.609375-1.03125-6.144531-2.878906l-40-48 12.289063-10.242188 29.910156 35.898438 20.175781-80.722656 15.519531 3.882812-24 96c-.726562 2.917969-3.039062 5.183594-5.976562 5.855469-.582032.144531-1.183594.207031-1.773438.207031zm0 0"></path><path d="m192.003906 448h16v16h-16zm0 0"></path><path d="m192.003906 416h16v16h-16zm0 0"></path><path d="m192.003906 384h16v16h-16zm0 0"></path><path d="m80.003906 384h16v104h-16zm0 0"></path><path d="m304.003906 384h16v104h-16zm0 0"></path><path d="m312.003906 224h-88v-16h80v-24h16v32c0 4.414062-3.585937 8-8 8zm0 0"></path><path d="m208.003906 240h-16c-13.234375 0-24-10.769531-24-24s10.765625-24 24-24h16c13.230469 0 24 10.769531 24 24s-10.769531 24-24 24zm-16-32c-4.410156 0-8 3.59375-8 8s3.589844 8 8 8h16c4.40625 0 8-3.59375 8-8s-3.59375-8-8-8zm0 0"></path><path d="m176.003906 160c0 8.835938-7.164062 16-16 16-8.835937 0-16-7.164062-16-16s7.164063-16 16-16c8.835938 0 16 7.164062 16 16zm0 0"></path><path d="m256.003906 160c0 8.835938-7.164062 16-16 16-8.835937 0-16-7.164062-16-16s7.164063-16 16-16c8.835938 0 16 7.164062 16 16zm0 0"></path><path d="m168.003906 128h-48v-16h48c30.878906 0 56-25.121094 56-56v-8h16v8c0 39.695312-32.304687 72-72 72zm0 0"></path></svg>