<!-- icon666.com - MILLIONS vector ICONS FREE --><svg version="1.1" id="Capa_1" xmlns="http://www.w3.org/2000/svg" xmlns:xlink="http://www.w3.org/1999/xlink" x="0px" y="0px" viewBox="0 0 496 496" style="enable-background:new 0 0 496 496;" xml:space="preserve"><g><rect x="392" y="392" style="fill: rgb(77, 195, 255);" width="64" height="64" fill="#FFA64D"></rect><rect x="216" y="360" style="fill: rgb(77, 195, 255);" width="32" height="128" fill="#FFA64D"></rect><rect x="48" y="16" style="fill: rgb(77, 195, 255);" width="32" height="112" fill="#FFA64D"></rect></g><g><path style="" d="M305.536,368H256v-16h-48v16h-48v32h-48c-35.288,0-64-28.712-64-64s28.712-64,64-64h272 c61.76,0,112-50.24,112-112S445.76,48,384,48H256v-8c0-13.232-10.768-24-24-24H128V0H0v144h128v-16h104c13.232,0,24-10.768,24-24 v-8h128c35.288,0,64,28.712,64,64s-28.712,64-64,64H112C50.24,224,0,274.24,0,336s50.24,112,112,112h48v32h48v16h48v-16h49.536 l40.008-16H496v-80H345.544L305.536,368z M240,416h-16v-16h16V416z M224,432h16v16h-16V432z M240,368v16h-16v-16H240z M112,128H16 V16h96V128z M240,104c0,4.408-3.592,8-8,8H128V32h104c4.408,0,8,3.592,8,8V104z M112,432c-52.936,0-96-43.064-96-96 s43.064-96,96-96h272c44.112,0,80-35.888,80-80s-35.888-80-80-80H256V64h128c52.936,0,96,43.064,96,96s-43.064,96-96,96H112 c-44.112,0-80,35.888-80,80s35.888,80,80,80h48v16H112z M176,464v-80h32v80H176z M224,480v-16h16v16H224z M256,384h40v48h16 v-44.184l24,9.6v53.168l-24,9.6V448h-16v16h-40V384z M384,448h-32v-48h32V448z M400,400h48v48h-48V400z M480,448h-16v-48h16V448z" fill="#333333"></path><rect x="32" y="96" style="" width="64" height="16" fill="#333333"></rect><rect x="32" y="32" style="" width="64" height="16" fill="#333333"></rect><rect x="32" y="64" style="" width="64" height="16" fill="#333333"></rect></g></svg>