<!-- icon666.com - MILLIONS vector ICONS FREE --><svg id="Capa_1" enable-background="new 0 0 512 512" viewBox="0 0 512 512" xmlns="http://www.w3.org/2000/svg"><path d="m369.58 512h-227.16c-78.53 0-142.42-63.889-142.42-142.42v-227.16c0-78.531 63.89-142.42 142.42-142.42h227.16c78.53 0 142.42 63.889 142.42 142.42v227.16c0 78.531-63.89 142.42-142.42 142.42z" fill="#5181b8"></path><path d="m369.58 0h-114.58v512h114.58c78.53 0 142.42-63.889 142.42-142.42v-227.16c0-78.531-63.89-142.42-142.42-142.42z" fill="#3b77b2"></path><path d="m256.556 365.891c-16.232 0-29.541-.878-53.077-12.239l-.291-.141-.3-.121c-8.551-3.466-84.872-37.934-130.95-179.112l-.032-.095c-1.35-4-2.38-12.526 2.322-19.109 4.188-5.865 12-8.965 22.591-8.965h41.801c2.155 0 4.062 1.374 4.744 3.419.086.261 9.011 26.931 22.581 54.489 8.19 16.632 16.275 30.014 24.031 39.774l10.094 12.701c2.556 3.216 7.735 1.417 7.735-2.691 0-20.989-.001-61.214.001-61.303l.05-.291.043-.401c.25-2.537.987-15.527-8.447-26.446-1.277-1.478-2.061-3.345-2.177-5.296-.131-2.211.342-4.82 1.98-7.183 3.113-4.493 9.394-6.771 18.667-6.771h55.97c.404 0 .808.015 1.207.08 6.326 1.019 13.054 7.75 13.054 20.269v74.462c0 3.929 4.806 5.835 7.499 2.973l9.784-10.4c9.093-9.665 26.61-31.188 41.775-66.748l.228-.533.164-.555c.592-2.001 6.393-19.547 27.643-19.547h40.12c.133 0 .266.005.398.016 3.056.247 7.477 2.148 9.897 6.696 5.356 10.067-3.143 25.188-5.936 30.157-.065.114-.143.24-.226.363l-34.079 50.001c-2.661 3.905-4.922 7.064-7.114 9.944-9.194 12.074-5.706 21.211-2.808 25.583.494.745 1.113 1.524 1.95 2.457l48.6 54.156.11.115c.769.803 4.787 5.079 8.439 10.392 2.263 3.294 9.149 13.316 5.689 21.517-2.342 5.552-8.361 8.367-17.89 8.367h-30.93c-13.926 0-27.397-4.964-37.933-13.978l-.341-.292c-.044-.038-41.461-32.744-58.33-46.065-2.845-2.247-7.023-.216-7.022 3.409l.001 36.637c.03 1.839-.267 8.251-5.332 13.567-2.922 3.066-8.509 6.722-18.531 6.722-1.317-.001-6.244.016-7.422.016z" fill="#fff"></path><path d="m434.596 335.989c-3.651-5.313-7.67-9.589-8.439-10.392l-.11-.115-48.6-54.156c-.837-.934-1.456-1.713-1.95-2.457-2.898-4.372-6.387-13.509 2.808-25.583 2.192-2.88 4.453-6.04 7.114-9.944l34.079-50.001c.083-.122.16-.248.226-.363 2.793-4.969 11.292-20.09 5.936-30.157-2.42-4.547-6.841-6.449-9.897-6.696-.133-.011-.266-.016-.398-.016h-40.12c-21.25 0-27.051 17.546-27.643 19.547l-.164.555-.228.533c-15.164 35.56-32.682 57.083-41.775 66.748l-9.785 10.401c-2.692 2.862-7.499.956-7.499-2.973v-74.462c0-12.519-6.729-19.25-13.054-20.269-.399-.064-.803-.08-1.207-.08h-18.89v219.779c.516.002 1.034.003 1.556.003 1.179 0 6.105-.017 7.421-.017 10.022 0 15.609-3.656 18.531-6.722 5.065-5.316 5.362-11.729 5.332-13.567l-.001-36.637c0-3.625 4.177-5.656 7.022-3.409 16.868 13.321 58.285 46.027 58.33 46.065l.341.292c10.535 9.014 24.007 13.978 37.933 13.978h30.93c9.528 0 15.548-2.815 17.89-8.367 3.46-8.202-3.427-18.224-5.689-21.518z" fill="#d7f2f9"></path></svg>